<?xml version="1.0" encoding="UTF-8" standalone="no"?>
<!-- Created with Inkscape (http://www.inkscape.org/) -->

<svg
   width="24mm"
   height="24mm"
   viewBox="0 0 24 24.000001"
   version="1.1"
   id="svg1"
   xml:space="preserve"
   inkscape:version="1.3.2 (091e20e, 2023-11-25)"
   sodipodi:docname="MacOS.svg"
   xmlns:inkscape="http://www.inkscape.org/namespaces/inkscape"
   xmlns:sodipodi="http://sodipodi.sourceforge.net/DTD/sodipodi-0.dtd"
   xmlns="http://www.w3.org/2000/svg"
   xmlns:svg="http://www.w3.org/2000/svg"><sodipodi:namedview
     id="namedview1"
     pagecolor="#ffffff"
     bordercolor="#000000"
     borderopacity="0.25"
     inkscape:showpageshadow="2"
     inkscape:pageopacity="0.0"
     inkscape:pagecheckerboard="0"
     inkscape:deskcolor="#d1d1d1"
     inkscape:document-units="mm"
     inkscape:zoom="7.9421345"
     inkscape:cx="46.020374"
     inkscape:cy="47.720169"
     inkscape:window-width="1452"
     inkscape:window-height="971"
     inkscape:window-x="26"
     inkscape:window-y="23"
     inkscape:window-maximized="0"
     inkscape:current-layer="layer1" /><defs
     id="defs1" /><g
     inkscape:label="Layer 1"
     inkscape:groupmode="layer"
     id="layer1"
     transform="translate(-20.676693,-116.75471)"><path
       style="fill:#000000;stroke-width:0.0646957"
       d="m 27.439217,137.64734 c -0.895808,-0.0744 -1.498461,-0.23067 -2.140685,-0.5552 -0.370624,-0.18724 -0.732361,-0.44078 -1.024097,-0.71781 -0.112158,-0.10662 -0.408275,-0.42559 -0.452746,-0.48784 -0.0067,-0.01 -0.04742,-0.0635 -0.09045,-0.11974 -0.04302,-0.0565 -0.115307,-0.16053 -0.160652,-0.23115 -0.04535,-0.0706 -0.09809,-0.15122 -0.117239,-0.17938 -0.04012,-0.0587 -0.300279,-0.57021 -0.335378,-0.65949 -0.172506,-0.43882 -0.213964,-0.56656 -0.31868,-0.98196 -0.250632,-0.99414 -0.292922,-2.30339 -0.109557,-3.39154 0.0849,-0.50377 0.169358,-0.81477 0.367228,-1.35227 0.07786,-0.21158 0.327702,-0.69534 0.472871,-0.91578 0.6691,-1.01603 1.604759,-1.67139 2.807629,-1.96657 0.224699,-0.0552 0.540062,-0.11021 0.793621,-0.1386 0.203468,-0.0239 1.095078,-0.0215 1.305869,6.5e-4 1.051664,0.11426 1.950049,0.4685 2.682485,1.05756 0.247192,0.1987 0.631015,0.59423 0.789113,0.81299 0.220404,0.30499 0.371992,0.555 0.519786,0.85746 0.317487,0.64965 0.504734,1.3332 0.602938,2.20085 0.05415,0.4778 0.05415,1.26427 -4.7e-5,1.75453 -0.05343,0.48379 -0.156001,1.02555 -0.251222,1.3266 -0.135965,0.42964 -0.231138,0.67266 -0.385826,0.98425 -0.244377,0.49255 -0.512535,0.87603 -0.871454,1.24629 -0.26408,0.27239 -0.628939,0.56732 -0.893495,0.72223 -0.352621,0.20632 -0.642224,0.33915 -0.981893,0.44992 -0.415453,0.13548 -0.682919,0.19415 -1.112635,0.24439 -0.2777,0.0324 -0.9074,0.0551 -1.095507,0.0393 z m 0.564868,-1.52979 c 0.556233,-0.0403 0.952625,-0.14073 1.37998,-0.34969 0.173175,-0.0847 0.254085,-0.13334 0.504734,-0.30317 0.0842,-0.057 0.311524,-0.26551 0.436133,-0.39985 0.592752,-0.63913 0.965531,-1.59506 1.051307,-2.69599 0.07109,-0.91413 -0.01431,-1.80986 -0.238627,-2.51499 -0.144074,-0.45157 -0.368128,-0.88614 -0.640698,-1.24227 -0.150037,-0.19608 -0.479284,-0.50719 -0.678386,-0.64103 -0.397061,-0.26695 -0.771605,-0.41906 -1.292368,-0.52485 -0.218019,-0.0443 -0.258116,-0.0469 -0.710372,-0.0483 -0.459891,-8.4e-4 -0.488968,6.4e-4 -0.718913,0.0469 -0.362808,0.0729 -0.573814,0.14455 -0.881044,0.29943 -0.454546,0.22899 -0.841493,0.56837 -1.16084,1.01817 -0.08324,0.11736 -0.177683,0.27753 -0.319837,0.54283 -0.04837,0.0904 -0.177348,0.42789 -0.23543,0.61622 -0.0869,0.2818 -0.141832,0.52927 -0.195717,0.88157 -0.04506,0.29464 -0.04713,0.33616 -0.0473,0.95 -1.71e-4,0.61666 0.0017,0.65403 0.0473,0.95003 0.109392,0.70971 0.273001,1.21905 0.555382,1.72885 0.3267,0.58978 0.835489,1.0833 1.390172,1.34838 0.41693,0.19918 0.827014,0.30425 1.318034,0.33748 0.09875,0.008 0.187486,0.0119 0.196789,0.0143 0.0095,8.4e-4 0.117118,-0.005 0.239629,-0.0143 z m 10.330354,1.5299 c -0.03292,-0.005 -0.194641,-0.0239 -0.359467,-0.0412 -1.243492,-0.13977 -2.247308,-0.56827 -2.913552,-1.24342 -0.406817,-0.41222 -0.654628,-0.84497 -0.807003,-1.40922 -0.04794,-0.17746 -0.120697,-0.64248 -0.104711,-0.6685 0.0072,-0.01 0.333301,-0.0168 0.831023,-0.0168 h 0.82098 l 0.01669,0.0387 c 0.0095,0.0215 0.03578,0.0923 0.06011,0.15838 0.267681,0.72074 0.737327,1.27165 1.342721,1.57503 0.198221,0.0994 0.343225,0.15052 0.609117,0.2154 0.36214,0.088 0.929298,0.087 1.326596,-0.003 1.01028,-0.22731 1.786703,-0.84281 1.910405,-1.51413 0.107578,-0.58424 -0.216109,-1.11795 -0.960377,-1.58318 -0.188203,-0.11761 -0.54018,-0.29247 -0.76173,-0.37832 -0.606873,-0.23519 -1.029624,-0.35839 -1.848672,-0.53871 -0.730959,-0.16099 -1.344511,-0.41318 -1.823007,-0.74958 -0.134532,-0.0947 -0.271879,-0.20561 -0.382677,-0.3093 -0.117596,-0.10997 -0.34716,-0.39076 -0.406912,-0.49749 -0.119982,-0.2142 -0.155046,-0.29053 -0.264843,-0.57366 -0.244638,-0.63145 -0.279321,-1.28903 -0.09828,-1.8658 0.334589,-1.06639 1.439423,-1.87974 2.950095,-2.17177 0.372016,-0.0721 0.662786,-0.0964 1.129761,-0.0954 0.737804,0.003 1.325857,0.11306 1.942822,0.36796 0.03292,0.0143 0.153853,0.0723 0.268682,0.13048 0.7899,0.40025 1.346251,1.02702 1.6037,1.80669 0.0966,0.29287 0.202991,0.85709 0.175321,0.9296 -0.0095,0.0215 -0.114495,0.0248 -0.801921,0.0215 l -0.792142,-0.005 -0.01431,-0.0857 c -0.02814,-0.1665 -0.103046,-0.39592 -0.187247,-0.5733 -0.236386,-0.49877 -0.658708,-0.85181 -1.237721,-1.03447 -0.276363,-0.0874 -0.471865,-0.11594 -0.845787,-0.12476 -0.322305,-0.008 -0.373136,-0.005 -0.623524,0.0372 -0.288242,0.0479 -0.529398,0.1114 -0.75338,0.19798 -0.591464,0.22876 -1.038926,0.61494 -1.194784,1.03138 -0.04842,0.12953 -0.05272,0.15744 -0.05247,0.35468 1.43e-4,0.19918 0.0048,0.22398 0.0551,0.35904 0.09494,0.25064 0.200844,0.40739 0.428427,0.63419 0.340386,0.33912 0.720916,0.53596 1.447509,0.74879 0.194166,0.0568 0.531689,0.13525 1.16399,0.27026 0.513202,0.10949 0.865801,0.19512 1.155427,0.28016 0.156715,0.046 0.268611,0.0842 0.532452,0.18199 0.116403,0.0432 0.434748,0.21684 0.605777,0.3304 0.28309,0.1882 0.459746,0.34293 0.657227,0.57587 0.300073,0.35396 0.473343,0.69322 0.594542,1.16398 0.04675,0.18153 0.04842,0.20323 0.04818,0.5991 -3.34e-4,0.39026 -0.0024,0.42067 -0.04794,0.60769 -0.06918,0.28611 -0.137156,0.47616 -0.259498,0.72747 -0.183432,0.37643 -0.401427,0.67539 -0.71221,0.97637 -0.634449,0.61443 -1.444385,0.99279 -2.402569,1.12236 -0.245211,0.0332 -0.873123,0.057 -1.018604,0.0389 z m -0.624786,-13.96838 c -0.447869,-0.0725 -0.773155,-0.22756 -1.06469,-0.50752 -0.258187,-0.24783 -0.391907,-0.4757 -0.504233,-0.85917 -0.03673,-0.12572 -0.04007,-0.16841 -0.04007,-0.52209 0,-0.42627 0.02147,-0.57184 0.132624,-0.86936 0.185817,-0.50087 0.683491,-0.88617 1.287216,-0.99645 0.755003,-0.13787 1.421986,0.14908 1.751232,0.75318 0.06201,0.11403 0.14312,0.35523 0.153853,0.45827 l 0.0095,0.0902 -0.346111,-0.005 -0.34611,-0.004 -0.03149,-0.0895 c -0.05939,-0.16888 -0.111155,-0.2532 -0.223028,-0.36424 -0.21945,-0.21801 -0.505617,-0.3 -0.812823,-0.23328 -0.365764,0.0794 -0.639336,0.38933 -0.772677,0.87515 -0.04293,0.15647 -0.04699,0.1975 -0.0477,0.47928 -6.42e-4,0.30089 4.78e-4,0.31085 0.04818,0.42408 0.197743,0.4703 0.644323,0.76148 1.112586,0.72536 0.312119,-0.0241 0.540944,-0.21182 0.680485,-0.55813 l 0.04509,-0.1121 0.344299,-0.005 0.344297,-0.004 v 0.057 c 0,0.0313 -0.02624,0.13359 -0.05821,0.22709 -0.08897,0.2605 -0.169359,0.39777 -0.342867,0.58471 -0.268229,0.28905 -0.636619,0.44682 -1.071128,0.45875 -0.108294,0.003 -0.219928,0.003 -0.248194,-0.003 z m -4.587453,-0.0168 c -0.305274,-0.0665 -0.463277,-0.13905 -0.618443,-0.28418 -0.548218,-0.51282 -0.370154,-1.38766 0.353123,-1.73493 0.245068,-0.11758 0.406102,-0.1474 1.052715,-0.19464 0.273025,-0.0191 0.529135,-0.0406 0.569161,-0.0458 l 0.07275,-0.01 -1.42e-4,-0.22494 c -1.44e-4,-0.19964 -0.0048,-0.23447 -0.04007,-0.31044 -0.05606,-0.11999 -0.118312,-0.18773 -0.234715,-0.25612 -0.106863,-0.0625 -0.298691,-0.11187 -0.435442,-0.11187 -0.114256,0 -0.310711,0.0484 -0.419196,0.10325 -0.125706,0.0635 -0.247692,0.18964 -0.310307,0.32076 l -0.05129,0.10734 -0.345586,-0.004 -0.345585,-0.005 0.0048,-0.0771 c 0.01669,-0.23828 0.109487,-0.43097 0.302746,-0.62641 0.193211,-0.19536 0.386733,-0.30176 0.719008,-0.39519 0.129284,-0.0365 0.202274,-0.0446 0.455643,-0.0521 0.286311,-0.008 0.311,-0.008 0.486989,0.038 0.498484,0.12475 0.790686,0.36817 0.930299,0.7748 l 0.05272,0.15361 v 1.39733 1.39732 h -0.340505 c -0.294731,0 -0.341912,-0.004 -0.350905,-0.0269 -0.0048,-0.0143 -0.0095,-0.14264 -0.0095,-0.28386 v -0.25675 l -0.09374,0.11688 c -0.184146,0.23019 -0.471363,0.40589 -0.738114,0.45187 -0.05081,0.01 -0.136917,0.0239 -0.191063,0.0329 -0.0966,0.0168 -0.407509,0.0215 -0.475014,0.005 z m 0.774729,-0.61483 c 0.296352,-0.0613 0.489421,-0.25397 0.609998,-0.60907 0.03602,-0.1059 0.04461,-0.16339 0.04461,-0.29784 v -0.16649 l -0.320945,0.012 c -0.373135,0.0143 -0.733892,0.0763 -0.94435,0.16339 -0.404121,0.16721 -0.478589,0.44127 -0.188201,0.69199 0.107339,0.0925 0.282159,0.17627 0.428715,0.20513 0.16721,0.0329 0.214678,0.0329 0.370106,8.4e-4 z m -7.690686,0.55386 c -0.0048,-0.012 -0.0072,-0.84981 -0.0048,-1.86188 l 0.0048,-1.84011 h 0.350904 0.350906 l 0.0095,0.26921 0.0095,0.2692 0.04174,-0.0637 c 0.13978,-0.21348 0.385254,-0.37659 0.678672,-0.45126 0.305274,-0.0778 0.66584,-0.0411 0.921117,0.0933 0.156238,0.0823 0.335066,0.26704 0.404478,0.41778 l 0.05701,0.12358 0.05105,-0.0895 c 0.06393,-0.11187 0.228753,-0.27772 0.357918,-0.36005 0.39718,-0.25314 0.981751,-0.2905 1.383773,-0.0885 0.08324,0.042 0.288744,0.19774 0.332252,0.25213 0.137157,0.17151 0.205138,0.3151 0.247597,0.52336 0.03387,0.16579 0.03482,0.21969 0.03077,1.49538 l -0.0048,1.32342 h -0.385016 -0.385158 l -0.0095,-1.26669 c -0.0072,-1.11514 -0.01193,-1.27622 -0.03721,-1.34618 -0.06489,-0.1839 -0.189633,-0.31901 -0.372731,-0.40457 -0.121174,-0.0565 -0.137393,-0.0596 -0.309614,-0.0592 -0.171028,4.8e-4 -0.189156,0.004 -0.308542,0.0599 -0.162917,0.0763 -0.257448,0.15981 -0.330606,0.29196 -0.10734,0.19369 -0.102803,0.13382 -0.112587,1.48375 l -0.0095,1.24101 h -0.385133 -0.385159 l -0.0095,-1.24101 -0.0095,-1.24102 -0.04986,-0.0857 c -0.181283,-0.31153 -0.525009,-0.45087 -0.869379,-0.35238 -0.18844,0.0539 -0.353981,0.19226 -0.427163,0.35729 -0.01908,0.0444 -0.05224,0.11521 -0.07227,0.15768 -0.03578,0.0756 -0.0365,0.0983 -0.04509,1.241 l -0.0095,1.164 -0.347017,0.004 c -0.268325,0.005 -0.348925,-3.1e-4 -0.355317,-0.0167 z"
       id="path1" /></g></svg>
