<?xml version="1.0" encoding="UTF-8" standalone="no"?>
<!-- Created with Inkscape (http://www.inkscape.org/) -->

<svg
   width="24mm"
   height="24mm"
   viewBox="0 0 24 24"
   version="1.1"
   id="svg1"
   xml:space="preserve"
   xmlns="http://www.w3.org/2000/svg"
   xmlns:svg="http://www.w3.org/2000/svg"><defs
     id="defs1" /><g
     id="layer1"><path
       style="fill:#000000;stroke-width:0.0905512"
       d="m 16.166669,20.462278 -4.92551,-0.697674 -0.01586,-2.34828 c -0.0087,-1.291554 -0.0159,-2.927772 -0.0159,-3.63604 l -1.3e-5,-1.287762 h 4.959371 4.959374 v 4.33646 c 0,2.385049 -0.0081,4.335219 -0.01798,4.333711 -0.0099,-0.0016 -2.234445,-0.316695 -4.943479,-0.700415 z M 6.5973945,19.13948 c -2.02927,-0.28113 -3.697668,-0.5117 -3.707551,-0.512383 -0.0099,-6.6e-4 -0.01797,-1.404253 -0.01797,-3.119047 v -3.117804 l 3.647655,0.01603 c 2.00621,0.0088 3.6880855,0.022 3.7374995,0.02929 l 0.08984,0.01326 v 3.603622 c 0,2.868381 -0.0061,3.603068 -0.02995,3.600901 -0.01647,-0.0016 -1.6902595,-0.232737 -3.7195295,-0.51386 z M 2.8718745,8.5431601 v -3.116174 l 0.07786,-0.01346 c 0.168706,-0.02912 7.3011465,-0.994975 7.3475825,-0.994975 h 0.04955 v 3.592335 c 0,1.975784 -0.0081,3.5970819 -0.01797,3.6028829 -0.0099,0.0058 -1.6917585,0.01844 -3.7374995,0.02804 l -3.71953,0.01751 z M 11.23333,7.9440491 v -3.667061 l 0.07787,-0.01362 c 0.129969,-0.02272 9.766674,-1.426062 9.792699,-1.426062 0.01623,0 0.02421,1.433829 0.02421,4.348436 v 4.3484349 l -0.580987,1.81e-4 c -0.553948,1.82e-4 -3.931891,0.02731 -7.606769,0.06104 l -1.707034,0.01567 z"
       id="path1" /></g></svg>
